<svg xmlns="http://www.w3.org/2000/svg" xmlns:xlink="http://www.w3.org/1999/xlink" width="500" zoomAndPan="magnify" viewBox="0 0 375 374.999991" height="500" preserveAspectRatio="xMidYMid meet" version="1.0"><defs><g/></defs><g fill="#fd5c12" fill-opacity="1"><g transform="translate(181.971584, 122.911582)"><g><path d="M -1.84375 0.4375 L 2 16.765625 L -3.796875 18.125 C -5.554688 18.539062 -7.113281 18.519531 -8.46875 18.0625 C -9.820312 17.613281 -10.941406 16.84375 -11.828125 15.75 C -12.710938 14.664062 -13.328125 13.375 -13.671875 11.875 C -14.066406 10.207031 -14.082031 8.679688 -13.71875 7.296875 C -13.351562 5.921875 -12.648438 4.753906 -11.609375 3.796875 C -10.566406 2.847656 -9.242188 2.179688 -7.640625 1.796875 Z M -11.03125 11.265625 C -10.769531 12.410156 -10.320312 13.367188 -9.6875 14.140625 C -9.0625 14.921875 -8.296875 15.46875 -7.390625 15.78125 C -6.484375 16.09375 -5.460938 16.113281 -4.328125 15.84375 L -1.09375 15.078125 L -3.875 3.3125 L -7.109375 4.078125 C -8.265625 4.347656 -9.171875 4.835938 -9.828125 5.546875 C -10.492188 6.253906 -10.925781 7.101562 -11.125 8.09375 C -11.332031 9.082031 -11.300781 10.140625 -11.03125 11.265625 Z M -11.03125 11.265625 "/></g></g></g><g fill="#fd5c12" fill-opacity="1"><g transform="translate(164.1184, 127.918697)"><g><path d="M -1.40625 0.671875 L 3.9375 11.8125 L 1.59375 12.9375 L -3.75 1.796875 Z M 4.828125 13.640625 L 6.0625 16.21875 L 3.71875 17.34375 L 2.484375 14.765625 Z M 4.828125 13.640625 "/></g></g></g><g fill="#fd5c12" fill-opacity="1"><g transform="translate(157.740006, 130.827315)"><g><path d="M -5.015625 3.234375 C -4.160156 2.640625 -3.253906 2.210938 -2.296875 1.953125 C -1.335938 1.691406 -0.394531 1.644531 0.53125 1.8125 L 0.75 3.8125 C -0.1875 3.695312 -1.03125 3.734375 -1.78125 3.921875 C -2.539062 4.109375 -3.210938 4.40625 -3.796875 4.8125 C -4.390625 5.226562 -4.789062 5.679688 -5 6.171875 C -5.21875 6.660156 -5.175781 7.125 -4.875 7.5625 C -4.644531 7.882812 -4.375 8.050781 -4.0625 8.0625 C -3.757812 8.070312 -3.382812 8.007812 -2.9375 7.875 C -2.488281 7.738281 -1.957031 7.554688 -1.34375 7.328125 C -0.46875 7.035156 0.296875 6.835938 0.953125 6.734375 C 1.609375 6.628906 2.179688 6.664062 2.671875 6.84375 C 3.171875 7.019531 3.609375 7.378906 3.984375 7.921875 C 4.441406 8.578125 4.664062 9.253906 4.65625 9.953125 C 4.65625 10.648438 4.4375 11.332031 4 12 C 3.570312 12.664062 2.96875 13.273438 2.1875 13.828125 C 1.457031 14.347656 0.703125 14.710938 -0.078125 14.921875 C -0.867188 15.140625 -1.664062 15.179688 -2.46875 15.046875 L -2.5625 13 C -1.820312 13.09375 -1.144531 13.066406 -0.53125 12.921875 C 0.0703125 12.773438 0.640625 12.515625 1.171875 12.140625 C 1.484375 11.921875 1.757812 11.675781 2 11.40625 C 2.238281 11.144531 2.382812 10.851562 2.4375 10.53125 C 2.488281 10.21875 2.394531 9.894531 2.15625 9.5625 C 1.96875 9.289062 1.734375 9.117188 1.453125 9.046875 C 1.179688 8.984375 0.847656 9.003906 0.453125 9.109375 C 0.0664062 9.210938 -0.398438 9.351562 -0.953125 9.53125 C -1.898438 9.851562 -2.726562 10.09375 -3.4375 10.25 C -4.15625 10.414062 -4.789062 10.425781 -5.34375 10.28125 C -5.894531 10.144531 -6.390625 9.765625 -6.828125 9.140625 C -7.515625 8.160156 -7.6875 7.144531 -7.34375 6.09375 C -7 5.039062 -6.222656 4.085938 -5.015625 3.234375 Z M -5.015625 3.234375 "/></g></g></g><g fill="#fd5c12" fill-opacity="1"><g transform="translate(146.80822, 138.669253)"><g><path d="M -4.890625 5.21875 C -4.253906 4.5 -3.550781 3.957031 -2.78125 3.59375 C -2.019531 3.226562 -1.226562 3.03125 -0.40625 3 C 0.414062 2.96875 1.21875 3.09375 2 3.375 C 2.78125 3.65625 3.5 4.078125 4.15625 4.640625 C 5.03125 5.410156 5.65625 6.3125 6.03125 7.34375 C 6.40625 8.382812 6.492188 9.453125 6.296875 10.546875 C 6.109375 11.648438 5.585938 12.691406 4.734375 13.671875 C 3.898438 14.617188 2.960938 15.257812 1.921875 15.59375 C 0.878906 15.9375 -0.132812 15.96875 -1.125 15.6875 L -0.046875 13.265625 C 0.523438 13.390625 1.085938 13.351562 1.640625 13.15625 C 2.203125 12.957031 2.6875 12.628906 3.09375 12.171875 C 3.539062 11.648438 3.816406 11.0625 3.921875 10.40625 C 4.035156 9.757812 3.960938 9.109375 3.703125 8.453125 C 3.453125 7.796875 3.019531 7.195312 2.40625 6.65625 C 1.8125 6.144531 1.160156 5.800781 0.453125 5.625 C -0.242188 5.457031 -0.914062 5.457031 -1.5625 5.625 C -2.207031 5.800781 -2.765625 6.148438 -3.234375 6.671875 C -3.515625 6.992188 -3.726562 7.351562 -3.875 7.75 C -4.019531 8.15625 -4.09375 8.554688 -4.09375 8.953125 C -4.09375 9.347656 -4.023438 9.703125 -3.890625 10.015625 L -6.125 11.421875 C -6.40625 10.816406 -6.546875 10.160156 -6.546875 9.453125 C -6.554688 8.742188 -6.425781 8.023438 -6.15625 7.296875 C -5.894531 6.578125 -5.472656 5.882812 -4.890625 5.21875 Z M -4.890625 5.21875 "/></g></g></g><g fill="#fd5c12" fill-opacity="1"><g transform="translate(136.893868, 150.268255)"><g><path d="M -3.34375 6.265625 C -2.914062 5.398438 -2.378906 4.691406 -1.734375 4.140625 C -1.085938 3.597656 -0.375 3.207031 0.40625 2.96875 C 1.1875 2.738281 1.988281 2.65625 2.8125 2.71875 C 3.632812 2.789062 4.429688 3.019531 5.203125 3.40625 C 5.984375 3.789062 6.648438 4.285156 7.203125 4.890625 C 7.753906 5.503906 8.175781 6.191406 8.46875 6.953125 C 8.757812 7.710938 8.878906 8.519531 8.828125 9.375 C 8.785156 10.226562 8.554688 11.082031 8.140625 11.9375 C 7.710938 12.800781 7.175781 13.503906 6.53125 14.046875 C 5.882812 14.597656 5.164062 14.992188 4.375 15.234375 C 3.59375 15.484375 2.789062 15.570312 1.96875 15.5 C 1.15625 15.425781 0.359375 15.195312 -0.421875 14.8125 C -1.191406 14.425781 -1.851562 13.929688 -2.40625 13.328125 C -2.96875 12.722656 -3.390625 12.035156 -3.671875 11.265625 C -3.960938 10.492188 -4.085938 9.679688 -4.046875 8.828125 C -4.003906 7.984375 -3.769531 7.128906 -3.34375 6.265625 Z M 3.984375 5.78125 C 3.285156 5.4375 2.582031 5.273438 1.875 5.296875 C 1.164062 5.316406 0.523438 5.492188 -0.046875 5.828125 C -0.617188 6.160156 -1.054688 6.632812 -1.359375 7.25 C -1.660156 7.851562 -1.769531 8.488281 -1.6875 9.15625 C -1.601562 9.832031 -1.347656 10.457031 -0.921875 11.03125 C -0.492188 11.613281 0.0625 12.078125 0.75 12.421875 C 1.457031 12.765625 2.164062 12.925781 2.875 12.90625 C 3.59375 12.894531 4.242188 12.71875 4.828125 12.375 C 5.410156 12.03125 5.851562 11.554688 6.15625 10.953125 C 6.457031 10.335938 6.554688 9.695312 6.453125 9.03125 C 6.359375 8.375 6.101562 7.753906 5.6875 7.171875 C 5.28125 6.597656 4.710938 6.132812 3.984375 5.78125 Z M 3.984375 5.78125 "/></g></g></g><g fill="#fd5c12" fill-opacity="1"><g transform="translate(130.02492, 164.975799)"><g><path d="M -1 4.921875 L 12.046875 2.765625 L 11.515625 5.390625 L 1.0625 6.890625 L 10.125 12.296875 L 9.625 14.75 L -1.5625 7.6875 Z M -1 4.921875 "/></g></g></g><g fill="#fd5c12" fill-opacity="1"><g transform="translate(127.255124, 179.581805)"><g><path d="M 0.171875 7.15625 C 0.117188 6.195312 0.238281 5.316406 0.53125 4.515625 C 0.820312 3.722656 1.242188 3.023438 1.796875 2.421875 C 2.359375 1.828125 3.007812 1.351562 3.75 1 C 4.5 0.644531 5.304688 0.441406 6.171875 0.390625 C 7.335938 0.328125 8.421875 0.535156 9.421875 1.015625 C 10.421875 1.492188 11.242188 2.195312 11.890625 3.125 C 12.535156 4.050781 12.894531 5.160156 12.96875 6.453125 C 13.050781 7.742188 12.820312 8.875 12.28125 9.84375 C 11.738281 10.8125 11.003906 11.582031 10.078125 12.15625 C 9.148438 12.738281 8.132812 13.0625 7.03125 13.125 C 6.84375 13.132812 6.664062 13.132812 6.5 13.125 C 6.332031 13.125 6.1875 13.113281 6.0625 13.09375 L 5.5 3.203125 C 4.789062 3.296875 4.171875 3.535156 3.640625 3.921875 C 3.117188 4.304688 2.71875 4.78125 2.4375 5.34375 C 2.164062 5.914062 2.050781 6.515625 2.09375 7.140625 C 2.132812 7.835938 2.34375 8.488281 2.71875 9.09375 C 3.101562 9.695312 3.585938 10.09375 4.171875 10.28125 L 3.671875 12.53125 C 3.046875 12.300781 2.476562 11.925781 1.96875 11.40625 C 1.457031 10.894531 1.039062 10.273438 0.71875 9.546875 C 0.40625 8.828125 0.222656 8.03125 0.171875 7.15625 Z M 7.234375 3.046875 L 7.65625 10.5 C 8.363281 10.40625 8.976562 10.164062 9.5 9.78125 C 10.019531 9.394531 10.414062 8.921875 10.6875 8.359375 C 10.96875 7.804688 11.085938 7.195312 11.046875 6.53125 C 11.015625 5.882812 10.828125 5.300781 10.484375 4.78125 C 10.148438 4.257812 9.703125 3.835938 9.140625 3.515625 C 8.578125 3.203125 7.941406 3.046875 7.234375 3.046875 Z M 7.234375 3.046875 "/></g></g></g><g fill="#fd5c12" fill-opacity="1"><g transform="translate(128.626152, 195.250396)"><g><path d="M 12.0625 5.421875 C 11.757812 4.460938 11.289062 3.664062 10.65625 3.03125 C 10.019531 2.40625 9.273438 2.039062 8.421875 1.9375 L 1.140625 4 L 0.421875 1.5 L 12.3125 -1.875 L 12.96875 0.4375 L 10.3125 1.1875 C 11.257812 1.375 12.070312 1.726562 12.75 2.25 C 13.425781 2.78125 13.894531 3.410156 14.15625 4.140625 C 14.195312 4.285156 14.234375 4.410156 14.265625 4.515625 C 14.296875 4.617188 14.3125 4.707031 14.3125 4.78125 Z M 12.0625 5.421875 "/></g></g></g><g fill="#fd5c12" fill-opacity="1"><g transform="translate(131.50181, 204.726717)"><g/></g></g><g fill="#fd5c12" fill-opacity="1"><g transform="translate(134.250659, 210.822167)"><g/></g></g><g fill="#fd5c12" fill-opacity="1"><g transform="translate(137.711796, 217.578776)"><g><path d="M 1.28125 1.390625 L 13.609375 -10 L 17.65625 -5.625 C 18.882812 -4.289062 19.632812 -2.921875 19.90625 -1.515625 C 20.175781 -0.117188 20.050781 1.226562 19.53125 2.53125 C 19.019531 3.84375 18.195312 5.019531 17.0625 6.0625 C 15.800781 7.226562 14.484375 7.988281 13.109375 8.34375 C 11.734375 8.707031 10.367188 8.671875 9.015625 8.234375 C 7.671875 7.804688 6.441406 6.984375 5.328125 5.765625 Z M 15.234375 4.078125 C 16.097656 3.285156 16.710938 2.421875 17.078125 1.484375 C 17.453125 0.554688 17.550781 -0.378906 17.375 -1.328125 C 17.207031 -2.273438 16.726562 -3.175781 15.9375 -4.03125 L 13.6875 -6.46875 L 4.796875 1.734375 L 7.046875 4.171875 C 7.847656 5.046875 8.722656 5.597656 9.671875 5.828125 C 10.617188 6.054688 11.566406 6.019531 12.515625 5.71875 C 13.472656 5.414062 14.378906 4.867188 15.234375 4.078125 Z M 15.234375 4.078125 "/></g></g></g><g fill="#fd5c12" fill-opacity="1"><g transform="translate(150.855166, 230.658554)"><g><path d="M 1.28125 0.890625 L 8.34375 -9.25 L 10.46875 -7.765625 L 3.40625 2.375 Z M 9.515625 -10.921875 L 11.140625 -13.265625 L 13.265625 -11.78125 L 11.640625 -9.4375 Z M 9.515625 -10.921875 "/></g></g></g><g fill="#fd5c12" fill-opacity="1"><g transform="translate(156.523499, 234.779352)"><g><path d="M 5.28125 2.765625 C 4.34375 2.328125 3.523438 1.753906 2.828125 1.046875 C 2.128906 0.335938 1.625 -0.460938 1.3125 -1.359375 L 2.9375 -2.53125 C 3.3125 -1.65625 3.757812 -0.929688 4.28125 -0.359375 C 4.8125 0.203125 5.398438 0.632812 6.046875 0.9375 C 6.703125 1.25 7.296875 1.378906 7.828125 1.328125 C 8.359375 1.273438 8.738281 1.007812 8.96875 0.53125 C 9.132812 0.175781 9.148438 -0.132812 9.015625 -0.40625 C 8.878906 -0.6875 8.640625 -0.988281 8.296875 -1.3125 C 7.953125 -1.632812 7.53125 -2.007812 7.03125 -2.4375 C 6.351562 -3.050781 5.804688 -3.617188 5.390625 -4.140625 C 4.972656 -4.671875 4.722656 -5.191406 4.640625 -5.703125 C 4.554688 -6.210938 4.65625 -6.765625 4.9375 -7.359375 C 5.28125 -8.078125 5.753906 -8.609375 6.359375 -8.953125 C 6.972656 -9.296875 7.675781 -9.441406 8.46875 -9.390625 C 9.269531 -9.347656 10.101562 -9.125 10.96875 -8.71875 C 11.78125 -8.332031 12.472656 -7.847656 13.046875 -7.265625 C 13.617188 -6.691406 14.046875 -6.019531 14.328125 -5.25 L 12.578125 -4.15625 C 12.296875 -4.851562 11.941406 -5.425781 11.515625 -5.875 C 11.097656 -6.332031 10.59375 -6.703125 10 -6.984375 C 9.65625 -7.148438 9.304688 -7.269531 8.953125 -7.34375 C 8.609375 -7.425781 8.28125 -7.410156 7.96875 -7.296875 C 7.664062 -7.179688 7.425781 -6.9375 7.25 -6.5625 C 7.113281 -6.269531 7.082031 -5.988281 7.15625 -5.71875 C 7.238281 -5.457031 7.421875 -5.179688 7.703125 -4.890625 C 7.984375 -4.609375 8.335938 -4.265625 8.765625 -3.859375 C 9.503906 -3.203125 10.125 -2.601562 10.625 -2.0625 C 11.125 -1.519531 11.445312 -0.972656 11.59375 -0.421875 C 11.738281 0.128906 11.648438 0.75 11.328125 1.4375 C 10.804688 2.519531 10 3.171875 8.90625 3.390625 C 7.820312 3.609375 6.613281 3.398438 5.28125 2.765625 Z M 5.28125 2.765625 "/></g></g></g><g fill="#fd5c12" fill-opacity="1"><g transform="translate(168.727699, 240.437553)"><g><path d="M 6.953125 1.703125 C 6.015625 1.503906 5.195312 1.15625 4.5 0.65625 C 3.800781 0.164062 3.238281 -0.425781 2.8125 -1.125 C 2.382812 -1.832031 2.097656 -2.59375 1.953125 -3.40625 C 1.804688 -4.21875 1.820312 -5.050781 2 -5.90625 C 2.238281 -7.039062 2.71875 -8.023438 3.4375 -8.859375 C 4.15625 -9.691406 5.039062 -10.296875 6.09375 -10.671875 C 7.144531 -11.054688 8.304688 -11.113281 9.578125 -10.84375 C 10.816406 -10.582031 11.835938 -10.078125 12.640625 -9.328125 C 13.453125 -8.585938 13.972656 -7.722656 14.203125 -6.734375 L 11.5625 -6.46875 C 11.394531 -7.039062 11.085938 -7.519531 10.640625 -7.90625 C 10.203125 -8.300781 9.679688 -8.5625 9.078125 -8.6875 C 8.410156 -8.820312 7.765625 -8.769531 7.140625 -8.53125 C 6.515625 -8.300781 5.976562 -7.914062 5.53125 -7.375 C 5.082031 -6.832031 4.773438 -6.160156 4.609375 -5.359375 C 4.453125 -4.585938 4.472656 -3.851562 4.671875 -3.15625 C 4.867188 -2.46875 5.203125 -1.882812 5.671875 -1.40625 C 6.140625 -0.925781 6.710938 -0.613281 7.390625 -0.46875 C 7.804688 -0.382812 8.226562 -0.375 8.65625 -0.4375 C 9.082031 -0.507812 9.46875 -0.644531 9.8125 -0.84375 C 10.15625 -1.039062 10.421875 -1.273438 10.609375 -1.546875 L 12.953125 -0.296875 C 12.554688 0.253906 12.054688 0.707031 11.453125 1.0625 C 10.847656 1.414062 10.160156 1.65625 9.390625 1.78125 C 8.628906 1.90625 7.816406 1.878906 6.953125 1.703125 Z M 6.953125 1.703125 "/></g></g></g><g fill="#fd5c12" fill-opacity="1"><g transform="translate(183.705936, 243.36368)"><g><path d="M 7.109375 -0.15625 C 6.140625 -0.101562 5.257812 -0.222656 4.46875 -0.515625 C 3.675781 -0.816406 2.984375 -1.25 2.390625 -1.8125 C 1.804688 -2.382812 1.34375 -3.046875 1 -3.796875 C 0.65625 -4.546875 0.457031 -5.347656 0.40625 -6.203125 C 0.351562 -7.066406 0.457031 -7.890625 0.71875 -8.671875 C 0.976562 -9.460938 1.367188 -10.171875 1.890625 -10.796875 C 2.421875 -11.421875 3.0625 -11.921875 3.8125 -12.296875 C 4.570312 -12.679688 5.429688 -12.898438 6.390625 -12.953125 C 7.359375 -13.015625 8.238281 -12.894531 9.03125 -12.59375 C 9.832031 -12.300781 10.53125 -11.875 11.125 -11.3125 C 11.71875 -10.75 12.179688 -10.085938 12.515625 -9.328125 C 12.859375 -8.578125 13.054688 -7.769531 13.109375 -6.90625 C 13.160156 -6.050781 13.054688 -5.234375 12.796875 -4.453125 C 12.546875 -3.671875 12.15625 -2.960938 11.625 -2.328125 C 11.09375 -1.703125 10.445312 -1.195312 9.6875 -0.8125 C 8.9375 -0.4375 8.078125 -0.21875 7.109375 -0.15625 Z M 3.078125 -6.3125 C 3.117188 -5.539062 3.320312 -4.847656 3.6875 -4.234375 C 4.0625 -3.628906 4.53125 -3.160156 5.09375 -2.828125 C 5.664062 -2.492188 6.296875 -2.34375 6.984375 -2.375 C 7.660156 -2.414062 8.269531 -2.632812 8.8125 -3.03125 C 9.351562 -3.4375 9.769531 -3.96875 10.0625 -4.625 C 10.351562 -5.28125 10.476562 -5.992188 10.4375 -6.765625 C 10.394531 -7.554688 10.191406 -8.253906 9.828125 -8.859375 C 9.460938 -9.472656 8.988281 -9.945312 8.40625 -10.28125 C 7.820312 -10.625 7.191406 -10.773438 6.515625 -10.734375 C 5.828125 -10.703125 5.21875 -10.476562 4.6875 -10.0625 C 4.164062 -9.65625 3.753906 -9.128906 3.453125 -8.484375 C 3.160156 -7.847656 3.035156 -7.125 3.078125 -6.3125 Z M 3.078125 -6.3125 "/></g></g></g><g fill="#fd5c12" fill-opacity="1"><g transform="translate(199.889633, 242.107673)"><g><path d="M 4.765625 -1.546875 L -3.53125 -11.84375 L -0.96875 -12.671875 L 5.453125 -4.296875 L 5.71875 -14.859375 L 8.109375 -15.640625 L 7.453125 -2.421875 Z M 4.765625 -1.546875 "/></g></g></g><g fill="#fd5c12" fill-opacity="1"><g transform="translate(213.969513, 237.333676)"><g><path d="M 6.140625 -3.671875 C 5.335938 -3.148438 4.515625 -2.820312 3.671875 -2.6875 C 2.835938 -2.550781 2.019531 -2.578125 1.21875 -2.765625 C 0.425781 -2.953125 -0.304688 -3.285156 -0.984375 -3.765625 C -1.660156 -4.242188 -2.234375 -4.84375 -2.703125 -5.5625 C -3.328125 -6.550781 -3.675781 -7.597656 -3.75 -8.703125 C -3.820312 -9.804688 -3.613281 -10.867188 -3.125 -11.890625 C -2.632812 -12.910156 -1.847656 -13.769531 -0.765625 -14.46875 C 0.316406 -15.164062 1.410156 -15.519531 2.515625 -15.53125 C 3.628906 -15.539062 4.664062 -15.28125 5.625 -14.75 C 6.582031 -14.226562 7.359375 -13.503906 7.953125 -12.578125 C 8.054688 -12.421875 8.144531 -12.265625 8.21875 -12.109375 C 8.300781 -11.960938 8.363281 -11.835938 8.40625 -11.734375 L 0.078125 -6.375 C 0.503906 -5.800781 1.015625 -5.378906 1.609375 -5.109375 C 2.210938 -4.835938 2.828125 -4.722656 3.453125 -4.765625 C 4.085938 -4.804688 4.664062 -4.992188 5.1875 -5.328125 C 5.769531 -5.703125 6.226562 -6.203125 6.5625 -6.828125 C 6.90625 -7.460938 7.019531 -8.082031 6.90625 -8.6875 L 9.09375 -9.359375 C 9.207031 -8.703125 9.160156 -8.023438 8.953125 -7.328125 C 8.753906 -6.628906 8.421875 -5.960938 7.953125 -5.328125 C 7.484375 -4.691406 6.878906 -4.140625 6.140625 -3.671875 Z M -0.90625 -7.796875 L 5.375 -11.828125 C 4.945312 -12.398438 4.4375 -12.816406 3.84375 -13.078125 C 3.25 -13.347656 2.640625 -13.460938 2.015625 -13.421875 C 1.398438 -13.390625 0.8125 -13.191406 0.25 -12.828125 C -0.289062 -12.472656 -0.703125 -12.019531 -0.984375 -11.46875 C -1.273438 -10.925781 -1.421875 -10.332031 -1.421875 -9.6875 C -1.429688 -9.039062 -1.257812 -8.410156 -0.90625 -7.796875 Z M -0.90625 -7.796875 "/></g></g></g><g fill="#fd5c12" fill-opacity="1"><g transform="translate(226.933872, 228.429944)"><g><path d="M -1.21875 -13.171875 C -1.90625 -12.429688 -2.363281 -11.628906 -2.59375 -10.765625 C -2.832031 -9.910156 -2.785156 -9.078125 -2.453125 -8.265625 L 2.921875 -2.953125 L 1.09375 -1.109375 L -7.6875 -9.796875 L -5.984375 -11.515625 L -4.015625 -9.578125 C -4.335938 -10.472656 -4.429688 -11.34375 -4.296875 -12.1875 C -4.171875 -13.039062 -3.859375 -13.765625 -3.359375 -14.359375 C -3.242188 -14.472656 -3.148438 -14.566406 -3.078125 -14.640625 C -3.003906 -14.710938 -2.9375 -14.769531 -2.875 -14.8125 Z M -1.21875 -13.171875 "/></g></g></g><g fill="#fd5c12" fill-opacity="1"><g transform="translate(233.77053, 221.264914)"><g/></g></g><g fill="#fd5c12" fill-opacity="1"><g transform="translate(237.724788, 215.872861)"><g/></g></g><g fill="#fd5c12" fill-opacity="1"><g transform="translate(241.904468, 209.535522)"><g><path d="M 0.578125 -1.796875 L -15.40625 -6.921875 L -13.59375 -12.59375 C -13.03125 -14.320312 -12.203125 -15.644531 -11.109375 -16.5625 C -10.023438 -17.488281 -8.785156 -18.050781 -7.390625 -18.25 C -6.003906 -18.445312 -4.578125 -18.3125 -3.109375 -17.84375 C -1.484375 -17.320312 -0.175781 -16.546875 0.8125 -15.515625 C 1.800781 -14.492188 2.4375 -13.289062 2.71875 -11.90625 C 3.007812 -10.519531 2.898438 -9.039062 2.390625 -7.46875 Z M -3.9375 -15.265625 C -5.0625 -15.617188 -6.117188 -15.726562 -7.109375 -15.59375 C -8.109375 -15.46875 -8.972656 -15.097656 -9.703125 -14.484375 C -10.441406 -13.867188 -10.992188 -13.003906 -11.359375 -11.890625 L -12.359375 -8.734375 L -0.84375 -5.03125 L 0.15625 -8.1875 C 0.519531 -9.3125 0.570312 -10.34375 0.3125 -11.28125 C 0.0507812 -12.21875 -0.441406 -13.023438 -1.171875 -13.703125 C -1.910156 -14.390625 -2.832031 -14.910156 -3.9375 -15.265625 Z M -3.9375 -15.265625 "/></g></g></g><g fill="#fd5c12" fill-opacity="1"><g transform="translate(246.82573, 191.65804)"><g><path d="M 0.140625 -1.5625 L -12.15625 -2.734375 L -11.90625 -5.3125 L 0.390625 -4.140625 Z M -14.1875 -2.921875 L -17.03125 -3.1875 L -16.78125 -5.765625 L -13.9375 -5.5 Z M -14.1875 -2.921875 "/></g></g></g><g fill="#fd5c12" fill-opacity="1"><g transform="translate(247.622452, 184.694593)"><g><path d="M -0.1875 -5.953125 C -0.113281 -4.910156 -0.210938 -3.914062 -0.484375 -2.96875 C -0.753906 -2.019531 -1.207031 -1.191406 -1.84375 -0.484375 L -3.640625 -1.328125 C -3.066406 -2.078125 -2.664062 -2.816406 -2.4375 -3.546875 C -2.207031 -4.285156 -2.117188 -5.007812 -2.171875 -5.71875 C -2.222656 -6.445312 -2.398438 -7.03125 -2.703125 -7.46875 C -3.015625 -7.90625 -3.429688 -8.109375 -3.953125 -8.078125 C -4.347656 -8.046875 -4.628906 -7.898438 -4.796875 -7.640625 C -4.972656 -7.390625 -5.113281 -7.035156 -5.21875 -6.578125 C -5.332031 -6.117188 -5.453125 -5.566406 -5.578125 -4.921875 C -5.785156 -4.023438 -6.015625 -3.269531 -6.265625 -2.65625 C -6.515625 -2.039062 -6.84375 -1.566406 -7.25 -1.234375 C -7.65625 -0.910156 -8.1875 -0.722656 -8.84375 -0.671875 C -9.632812 -0.617188 -10.328125 -0.773438 -10.921875 -1.140625 C -11.523438 -1.515625 -12.003906 -2.054688 -12.359375 -2.765625 C -12.710938 -3.472656 -12.921875 -4.304688 -12.984375 -5.265625 C -13.046875 -6.160156 -12.96875 -7 -12.75 -7.78125 C -12.53125 -8.5625 -12.148438 -9.265625 -11.609375 -9.890625 L -9.828125 -8.890625 C -10.273438 -8.316406 -10.59375 -7.734375 -10.78125 -7.140625 C -10.976562 -6.546875 -11.050781 -5.921875 -11 -5.265625 C -10.976562 -4.890625 -10.910156 -4.53125 -10.796875 -4.1875 C -10.691406 -3.84375 -10.515625 -3.5625 -10.265625 -3.34375 C -10.023438 -3.132812 -9.703125 -3.046875 -9.296875 -3.078125 C -8.972656 -3.097656 -8.710938 -3.207031 -8.515625 -3.40625 C -8.328125 -3.613281 -8.175781 -3.910156 -8.0625 -4.296875 C -7.945312 -4.691406 -7.816406 -5.171875 -7.671875 -5.734375 C -7.460938 -6.710938 -7.242188 -7.546875 -7.015625 -8.234375 C -6.785156 -8.929688 -6.46875 -9.476562 -6.0625 -9.875 C -5.65625 -10.28125 -5.070312 -10.507812 -4.3125 -10.5625 C -3.125 -10.644531 -2.164062 -10.265625 -1.4375 -9.421875 C -0.707031 -8.585938 -0.289062 -7.429688 -0.1875 -5.953125 Z M -0.1875 -5.953125 "/></g></g></g><g fill="#fd5c12" fill-opacity="1"><g transform="translate(246.542718, 171.285041)"><g><path d="M -1.953125 -6.890625 C -1.660156 -5.984375 -1.554688 -5.101562 -1.640625 -4.25 C -1.734375 -3.40625 -1.972656 -2.617188 -2.359375 -1.890625 C -2.753906 -1.171875 -3.273438 -0.546875 -3.921875 -0.015625 C -4.566406 0.503906 -5.300781 0.894531 -6.125 1.15625 C -7.238281 1.507812 -8.332031 1.578125 -9.40625 1.359375 C -10.488281 1.148438 -11.453125 0.679688 -12.296875 -0.046875 C -13.140625 -0.773438 -13.757812 -1.757812 -14.15625 -3 C -14.539062 -4.207031 -14.609375 -5.34375 -14.359375 -6.40625 C -14.109375 -7.476562 -13.601562 -8.363281 -12.84375 -9.0625 L -11.328125 -6.890625 C -11.734375 -6.460938 -12 -5.957031 -12.125 -5.375 C -12.25 -4.800781 -12.21875 -4.222656 -12.03125 -3.640625 C -11.820312 -2.984375 -11.460938 -2.441406 -10.953125 -2.015625 C -10.441406 -1.585938 -9.835938 -1.3125 -9.140625 -1.1875 C -8.453125 -1.070312 -7.710938 -1.140625 -6.921875 -1.390625 C -6.179688 -1.628906 -5.554688 -2.003906 -5.046875 -2.515625 C -4.546875 -3.023438 -4.203125 -3.597656 -4.015625 -4.234375 C -3.828125 -4.878906 -3.84375 -5.53125 -4.0625 -6.1875 C -4.1875 -6.601562 -4.378906 -6.976562 -4.640625 -7.3125 C -4.910156 -7.65625 -5.210938 -7.925781 -5.546875 -8.125 C -5.890625 -8.332031 -6.234375 -8.453125 -6.578125 -8.484375 L -6.625 -11.140625 C -5.957031 -11.066406 -5.316406 -10.847656 -4.703125 -10.484375 C -4.097656 -10.128906 -3.554688 -9.648438 -3.078125 -9.046875 C -2.597656 -8.453125 -2.222656 -7.734375 -1.953125 -6.890625 Z M -1.953125 -6.890625 "/></g></g></g><g fill="#fd5c12" fill-opacity="1"><g transform="translate(241.723361, 156.806732)"><g><path d="M -3.640625 -6.109375 C -3.109375 -5.296875 -2.773438 -4.46875 -2.640625 -3.625 C -2.515625 -2.789062 -2.550781 -1.976562 -2.75 -1.1875 C -2.957031 -0.394531 -3.300781 0.332031 -3.78125 1 C -4.269531 1.664062 -4.875 2.234375 -5.59375 2.703125 C -6.320312 3.171875 -7.09375 3.484375 -7.90625 3.640625 C -8.71875 3.804688 -9.523438 3.816406 -10.328125 3.671875 C -11.128906 3.523438 -11.882812 3.210938 -12.59375 2.734375 C -13.300781 2.253906 -13.914062 1.613281 -14.4375 0.8125 C -14.957031 0 -15.28125 -0.820312 -15.40625 -1.65625 C -15.539062 -2.5 -15.507812 -3.316406 -15.3125 -4.109375 C -15.125 -4.910156 -14.78125 -5.644531 -14.28125 -6.3125 C -13.789062 -6.976562 -13.179688 -7.546875 -12.453125 -8.015625 C -11.734375 -8.484375 -10.972656 -8.796875 -10.171875 -8.953125 C -9.367188 -9.117188 -8.5625 -9.125 -7.75 -8.96875 C -6.9375 -8.820312 -6.175781 -8.507812 -5.46875 -8.03125 C -4.769531 -7.5625 -4.160156 -6.921875 -3.640625 -6.109375 Z M -7.015625 0.4375 C -6.359375 0.0195312 -5.851562 -0.5 -5.5 -1.125 C -5.15625 -1.75 -4.976562 -2.390625 -4.96875 -3.046875 C -4.957031 -3.703125 -5.140625 -4.320312 -5.515625 -4.90625 C -5.878906 -5.476562 -6.367188 -5.898438 -6.984375 -6.171875 C -7.597656 -6.453125 -8.257812 -6.554688 -8.96875 -6.484375 C -9.6875 -6.421875 -10.367188 -6.179688 -11.015625 -5.765625 C -11.679688 -5.335938 -12.191406 -4.8125 -12.546875 -4.1875 C -12.898438 -3.570312 -13.082031 -2.925781 -13.09375 -2.25 C -13.101562 -1.582031 -12.925781 -0.960938 -12.5625 -0.390625 C -12.1875 0.191406 -11.691406 0.613281 -11.078125 0.875 C -10.460938 1.132812 -9.800781 1.234375 -9.09375 1.171875 C -8.382812 1.117188 -7.691406 0.875 -7.015625 0.4375 Z M -7.015625 0.4375 "/></g></g></g><g fill="#fd5c12" fill-opacity="1"><g transform="translate(232.667442, 143.335114)"><g><path d="M -3.703125 -3.390625 L -8.578125 8.890625 L -10.5625 7.078125 L -6.4375 -2.625 L -15.75 2.328125 L -17.59375 0.640625 L -5.78125 -5.296875 Z M -3.703125 -3.390625 "/></g></g></g><g fill="#fd5c12" fill-opacity="1"><g transform="translate(221.585146, 133.426669)"><g><path d="M -6.21875 -3.53125 C -5.375 -3.082031 -4.679688 -2.53125 -4.140625 -1.875 C -3.609375 -1.21875 -3.226562 -0.5 -3 0.28125 C -2.78125 1.070312 -2.707031 1.878906 -2.78125 2.703125 C -2.863281 3.523438 -3.109375 4.320312 -3.515625 5.09375 C -4.054688 6.125 -4.789062 6.941406 -5.71875 7.546875 C -6.65625 8.148438 -7.6875 8.488281 -8.8125 8.5625 C -9.9375 8.644531 -11.070312 8.382812 -12.21875 7.78125 C -13.363281 7.175781 -14.210938 6.390625 -14.765625 5.421875 C -15.316406 4.460938 -15.597656 3.441406 -15.609375 2.359375 C -15.628906 1.273438 -15.382812 0.242188 -14.875 -0.734375 C -14.78125 -0.898438 -14.6875 -1.050781 -14.59375 -1.1875 C -14.5 -1.332031 -14.414062 -1.453125 -14.34375 -1.546875 L -5.578125 3.0625 C -5.296875 2.40625 -5.179688 1.75 -5.234375 1.09375 C -5.296875 0.445312 -5.5 -0.132812 -5.84375 -0.65625 C -6.195312 -1.1875 -6.648438 -1.597656 -7.203125 -1.890625 C -7.816406 -2.210938 -8.476562 -2.363281 -9.1875 -2.34375 C -9.90625 -2.332031 -10.492188 -2.128906 -10.953125 -1.734375 L -12.625 -3.328125 C -12.101562 -3.734375 -11.488281 -4.019531 -10.78125 -4.1875 C -10.082031 -4.363281 -9.34375 -4.398438 -8.5625 -4.296875 C -7.78125 -4.191406 -7 -3.9375 -6.21875 -3.53125 Z M -6.34375 4.625 L -12.953125 1.140625 C -13.234375 1.796875 -13.34375 2.441406 -13.28125 3.078125 C -13.21875 3.722656 -13.019531 4.3125 -12.6875 4.84375 C -12.351562 5.375 -11.890625 5.796875 -11.296875 6.109375 C -10.722656 6.410156 -10.125 6.546875 -9.5 6.515625 C -8.875 6.492188 -8.28125 6.320312 -7.71875 6 C -7.164062 5.6875 -6.707031 5.226562 -6.34375 4.625 Z M -6.34375 4.625 "/></g></g></g><g fill="#fd5c12" fill-opacity="1"><g transform="translate(207.453063, 126.519251)"><g><path d="M -10.875 7.53125 C -9.894531 7.769531 -8.96875 7.78125 -8.09375 7.5625 C -7.226562 7.34375 -6.53125 6.890625 -6 6.203125 L -4.015625 -1.09375 L -1.5 -0.40625 L -4.75 11.515625 L -7.078125 10.875 L -6.34375 8.203125 C -6.988281 8.929688 -7.707031 9.445312 -8.5 9.75 C -9.300781 10.0625 -10.082031 10.140625 -10.84375 9.984375 C -11 9.941406 -11.125 9.90625 -11.21875 9.875 C -11.320312 9.851562 -11.410156 9.820312 -11.484375 9.78125 Z M -10.875 7.53125 "/></g></g></g><g fill="#fd5c12" fill-opacity="1"><g transform="translate(197.852967, 124.093243)"><g/></g></g><g fill="#6d1fab" fill-opacity="1"><g transform="translate(226.633041, 217.855257)"><g><path d="M 6.125 -0.125 C 8.609375 -0.125 10.640625 -2.15625 10.640625 -4.65625 C 10.640625 -7.140625 8.609375 -9.171875 6.125 -9.171875 C 3.625 -9.171875 1.59375 -7.140625 1.59375 -4.65625 C 1.59375 -2.15625 3.625 -0.125 6.125 -0.125 Z M 2.4375 -4.65625 C 2.4375 -6.6875 4.09375 -8.328125 6.125 -8.328125 C 8.140625 -8.328125 9.796875 -6.6875 9.796875 -4.65625 C 9.796875 -2.625 8.140625 -0.96875 6.125 -0.96875 C 4.09375 -0.96875 2.4375 -2.625 2.4375 -4.65625 Z M 6.828125 -4.65625 C 6.828125 -5.03125 6.515625 -5.359375 6.125 -5.359375 C 5.71875 -5.359375 5.40625 -5.03125 5.40625 -4.65625 C 5.40625 -4.25 5.71875 -3.9375 6.125 -3.9375 C 6.515625 -3.9375 6.828125 -4.25 6.828125 -4.65625 Z M 6.828125 -4.65625 "/></g></g></g><g fill="#6d1fab" fill-opacity="1"><g transform="translate(131.685025, 212.626804)"><g><path d="M 6.125 -0.125 C 8.609375 -0.125 10.640625 -2.15625 10.640625 -4.65625 C 10.640625 -7.140625 8.609375 -9.171875 6.125 -9.171875 C 3.625 -9.171875 1.59375 -7.140625 1.59375 -4.65625 C 1.59375 -2.15625 3.625 -0.125 6.125 -0.125 Z M 2.4375 -4.65625 C 2.4375 -6.6875 4.09375 -8.328125 6.125 -8.328125 C 8.140625 -8.328125 9.796875 -6.6875 9.796875 -4.65625 C 9.796875 -2.625 8.140625 -0.96875 6.125 -0.96875 C 4.09375 -0.96875 2.4375 -2.625 2.4375 -4.65625 Z M 6.828125 -4.65625 C 6.828125 -5.03125 6.515625 -5.359375 6.125 -5.359375 C 5.71875 -5.359375 5.40625 -5.03125 5.40625 -4.65625 C 5.40625 -4.25 5.71875 -3.9375 6.125 -3.9375 C 6.515625 -3.9375 6.828125 -4.25 6.828125 -4.65625 Z M 6.828125 -4.65625 "/></g></g></g><g fill="#6d1fab" fill-opacity="1"><g transform="translate(184.309255, 132.36811)"><g><path d="M 6.125 -0.125 C 8.609375 -0.125 10.640625 -2.15625 10.640625 -4.65625 C 10.640625 -7.140625 8.609375 -9.171875 6.125 -9.171875 C 3.625 -9.171875 1.59375 -7.140625 1.59375 -4.65625 C 1.59375 -2.15625 3.625 -0.125 6.125 -0.125 Z M 2.4375 -4.65625 C 2.4375 -6.6875 4.09375 -8.328125 6.125 -8.328125 C 8.140625 -8.328125 9.796875 -6.6875 9.796875 -4.65625 C 9.796875 -2.625 8.140625 -0.96875 6.125 -0.96875 C 4.09375 -0.96875 2.4375 -2.625 2.4375 -4.65625 Z M 6.828125 -4.65625 C 6.828125 -5.03125 6.515625 -5.359375 6.125 -5.359375 C 5.71875 -5.359375 5.40625 -5.03125 5.40625 -4.65625 C 5.40625 -4.25 5.71875 -3.9375 6.125 -3.9375 C 6.515625 -3.9375 6.828125 -4.25 6.828125 -4.65625 Z M 6.828125 -4.65625 "/></g></g></g></svg>